<mxfile host="app.diagrams.net" modified="2022-09-20T10:05:37.735Z" agent="5.0 (X11; Linux x86_64) AppleWebKit/537.36 (KHTML, like Gecko) Chrome/105.0.0.0 Safari/537.36" etag="zU-gscOwBUjisTjrFj5K" version="20.3.3" type="github">
  <diagram name="Page-1" id="9f46799a-70d6-7492-0946-bef42562c5a5">
    <mxGraphModel dx="1348" dy="805" grid="1" gridSize="10" guides="1" tooltips="1" connect="1" arrows="1" fold="1" page="1" pageScale="1" pageWidth="1100" pageHeight="850" background="none" math="0" shadow="0">
      <root>
        <mxCell id="0" />
        <mxCell id="1" parent="0" />
        <mxCell id="2bCCSjfYuyasdrhFTrIX-1" value="School" style="swimlane;" vertex="1" parent="1">
          <mxGeometry x="150" y="400" width="200" height="200" as="geometry" />
        </mxCell>
        <mxCell id="2bCCSjfYuyasdrhFTrIX-2" value="id" style="text;strokeColor=none;fillColor=none;align=left;verticalAlign=middle;spacingLeft=4;spacingRight=4;overflow=hidden;points=[[0,0.5],[1,0.5]];portConstraint=eastwest;rotatable=0;" vertex="1" parent="2bCCSjfYuyasdrhFTrIX-1">
          <mxGeometry y="25" width="200" height="30" as="geometry" />
        </mxCell>
        <mxCell id="2bCCSjfYuyasdrhFTrIX-3" value="school_code" style="text;strokeColor=none;fillColor=none;align=left;verticalAlign=middle;spacingLeft=4;spacingRight=4;overflow=hidden;points=[[0,0.5],[1,0.5]];portConstraint=eastwest;rotatable=0;" vertex="1" parent="2bCCSjfYuyasdrhFTrIX-1">
          <mxGeometry y="55" width="200" height="30" as="geometry" />
        </mxCell>
        <mxCell id="2bCCSjfYuyasdrhFTrIX-7" value="level_id" style="text;strokeColor=none;fillColor=none;align=left;verticalAlign=middle;spacingLeft=4;spacingRight=4;overflow=hidden;points=[[0,0.5],[1,0.5]];portConstraint=eastwest;rotatable=0;" vertex="1" parent="2bCCSjfYuyasdrhFTrIX-1">
          <mxGeometry y="80" width="200" height="30" as="geometry" />
        </mxCell>
        <mxCell id="2bCCSjfYuyasdrhFTrIX-4" value="School_level" style="swimlane;" vertex="1" parent="1">
          <mxGeometry x="20" y="80" width="200" height="200" as="geometry" />
        </mxCell>
        <mxCell id="2bCCSjfYuyasdrhFTrIX-5" value="id" style="text;strokeColor=none;fillColor=none;align=left;verticalAlign=middle;spacingLeft=4;spacingRight=4;overflow=hidden;points=[[0,0.5],[1,0.5]];portConstraint=eastwest;rotatable=0;" vertex="1" parent="2bCCSjfYuyasdrhFTrIX-4">
          <mxGeometry y="25" width="200" height="30" as="geometry" />
        </mxCell>
        <mxCell id="2bCCSjfYuyasdrhFTrIX-6" value="name" style="text;strokeColor=none;fillColor=none;align=left;verticalAlign=middle;spacingLeft=4;spacingRight=4;overflow=hidden;points=[[0,0.5],[1,0.5]];portConstraint=eastwest;rotatable=0;" vertex="1" parent="2bCCSjfYuyasdrhFTrIX-4">
          <mxGeometry y="55" width="200" height="30" as="geometry" />
        </mxCell>
        <mxCell id="2bCCSjfYuyasdrhFTrIX-8" value="class_group" style="swimlane;" vertex="1" parent="1">
          <mxGeometry x="20" y="720" width="200" height="200" as="geometry" />
        </mxCell>
        <mxCell id="2bCCSjfYuyasdrhFTrIX-9" value="id" style="text;strokeColor=none;fillColor=none;align=left;verticalAlign=middle;spacingLeft=4;spacingRight=4;overflow=hidden;points=[[0,0.5],[1,0.5]];portConstraint=eastwest;rotatable=0;" vertex="1" parent="2bCCSjfYuyasdrhFTrIX-8">
          <mxGeometry y="25" width="200" height="30" as="geometry" />
        </mxCell>
        <mxCell id="2bCCSjfYuyasdrhFTrIX-10" value="name" style="text;strokeColor=none;fillColor=none;align=left;verticalAlign=middle;spacingLeft=4;spacingRight=4;overflow=hidden;points=[[0,0.5],[1,0.5]];portConstraint=eastwest;rotatable=0;" vertex="1" parent="2bCCSjfYuyasdrhFTrIX-8">
          <mxGeometry y="55" width="200" height="30" as="geometry" />
        </mxCell>
        <mxCell id="2bCCSjfYuyasdrhFTrIX-15" value="school_id" style="text;strokeColor=none;fillColor=none;align=left;verticalAlign=middle;spacingLeft=4;spacingRight=4;overflow=hidden;points=[[0,0.5],[1,0.5]];portConstraint=eastwest;rotatable=0;" vertex="1" parent="2bCCSjfYuyasdrhFTrIX-8">
          <mxGeometry y="85" width="200" height="30" as="geometry" />
        </mxCell>
        <mxCell id="2bCCSjfYuyasdrhFTrIX-11" value="class" style="swimlane;" vertex="1" parent="1">
          <mxGeometry x="440" y="620" width="200" height="200" as="geometry" />
        </mxCell>
        <mxCell id="2bCCSjfYuyasdrhFTrIX-12" value="id" style="text;strokeColor=none;fillColor=none;align=left;verticalAlign=middle;spacingLeft=4;spacingRight=4;overflow=hidden;points=[[0,0.5],[1,0.5]];portConstraint=eastwest;rotatable=0;" vertex="1" parent="2bCCSjfYuyasdrhFTrIX-11">
          <mxGeometry y="25" width="200" height="30" as="geometry" />
        </mxCell>
        <mxCell id="2bCCSjfYuyasdrhFTrIX-13" value="name" style="text;strokeColor=none;fillColor=none;align=left;verticalAlign=middle;spacingLeft=4;spacingRight=4;overflow=hidden;points=[[0,0.5],[1,0.5]];portConstraint=eastwest;rotatable=0;" vertex="1" parent="2bCCSjfYuyasdrhFTrIX-11">
          <mxGeometry y="55" width="200" height="30" as="geometry" />
        </mxCell>
        <mxCell id="2bCCSjfYuyasdrhFTrIX-14" value="class_group_id" style="text;strokeColor=none;fillColor=none;align=left;verticalAlign=middle;spacingLeft=4;spacingRight=4;overflow=hidden;points=[[0,0.5],[1,0.5]];portConstraint=eastwest;rotatable=0;" vertex="1" parent="2bCCSjfYuyasdrhFTrIX-11">
          <mxGeometry y="85" width="200" height="30" as="geometry" />
        </mxCell>
        <mxCell id="2bCCSjfYuyasdrhFTrIX-16" value="teacher" style="swimlane;" vertex="1" parent="1">
          <mxGeometry x="790" y="630" width="200" height="200" as="geometry" />
        </mxCell>
        <mxCell id="2bCCSjfYuyasdrhFTrIX-17" value="id" style="text;strokeColor=none;fillColor=none;align=left;verticalAlign=middle;spacingLeft=4;spacingRight=4;overflow=hidden;points=[[0,0.5],[1,0.5]];portConstraint=eastwest;rotatable=0;" vertex="1" parent="2bCCSjfYuyasdrhFTrIX-16">
          <mxGeometry y="25" width="200" height="30" as="geometry" />
        </mxCell>
        <mxCell id="2bCCSjfYuyasdrhFTrIX-18" value="name" style="text;strokeColor=none;fillColor=none;align=left;verticalAlign=middle;spacingLeft=4;spacingRight=4;overflow=hidden;points=[[0,0.5],[1,0.5]];portConstraint=eastwest;rotatable=0;" vertex="1" parent="2bCCSjfYuyasdrhFTrIX-16">
          <mxGeometry y="55" width="200" height="30" as="geometry" />
        </mxCell>
        <mxCell id="2bCCSjfYuyasdrhFTrIX-20" value="student" style="swimlane;" vertex="1" parent="1">
          <mxGeometry x="790" y="340" width="200" height="200" as="geometry" />
        </mxCell>
        <mxCell id="2bCCSjfYuyasdrhFTrIX-21" value="id" style="text;strokeColor=none;fillColor=none;align=left;verticalAlign=middle;spacingLeft=4;spacingRight=4;overflow=hidden;points=[[0,0.5],[1,0.5]];portConstraint=eastwest;rotatable=0;" vertex="1" parent="2bCCSjfYuyasdrhFTrIX-20">
          <mxGeometry y="25" width="200" height="30" as="geometry" />
        </mxCell>
        <mxCell id="2bCCSjfYuyasdrhFTrIX-22" value="name" style="text;strokeColor=none;fillColor=none;align=left;verticalAlign=middle;spacingLeft=4;spacingRight=4;overflow=hidden;points=[[0,0.5],[1,0.5]];portConstraint=eastwest;rotatable=0;" vertex="1" parent="2bCCSjfYuyasdrhFTrIX-20">
          <mxGeometry y="55" width="200" height="30" as="geometry" />
        </mxCell>
        <mxCell id="2bCCSjfYuyasdrhFTrIX-23" value="class_id" style="text;strokeColor=none;fillColor=none;align=left;verticalAlign=middle;spacingLeft=4;spacingRight=4;overflow=hidden;points=[[0,0.5],[1,0.5]];portConstraint=eastwest;rotatable=0;" vertex="1" parent="2bCCSjfYuyasdrhFTrIX-20">
          <mxGeometry y="85" width="200" height="30" as="geometry" />
        </mxCell>
        <mxCell id="2bCCSjfYuyasdrhFTrIX-24" value="" style="endArrow=classic;html=1;rounded=0;exitX=0.5;exitY=1;exitDx=0;exitDy=0;entryX=0.5;entryY=0;entryDx=0;entryDy=0;" edge="1" parent="1" source="2bCCSjfYuyasdrhFTrIX-4" target="2bCCSjfYuyasdrhFTrIX-1">
          <mxGeometry width="50" height="50" relative="1" as="geometry">
            <mxPoint x="530" y="490" as="sourcePoint" />
            <mxPoint x="580" y="440" as="targetPoint" />
            <Array as="points">
              <mxPoint x="120" y="350" />
              <mxPoint x="250" y="350" />
            </Array>
          </mxGeometry>
        </mxCell>
        <mxCell id="2bCCSjfYuyasdrhFTrIX-25" value="" style="endArrow=classic;html=1;rounded=0;exitX=0.5;exitY=0;exitDx=0;exitDy=0;" edge="1" parent="1" source="2bCCSjfYuyasdrhFTrIX-8">
          <mxGeometry width="50" height="50" relative="1" as="geometry">
            <mxPoint x="530" y="440" as="sourcePoint" />
            <mxPoint x="260" y="600" as="targetPoint" />
            <Array as="points">
              <mxPoint x="120" y="680" />
              <mxPoint x="260" y="680" />
            </Array>
          </mxGeometry>
        </mxCell>
        <mxCell id="2bCCSjfYuyasdrhFTrIX-26" value="" style="endArrow=classic;html=1;rounded=0;exitX=0;exitY=0.5;exitDx=0;exitDy=0;entryX=1.015;entryY=0.9;entryDx=0;entryDy=0;entryPerimeter=0;" edge="1" parent="1" source="2bCCSjfYuyasdrhFTrIX-14" target="2bCCSjfYuyasdrhFTrIX-15">
          <mxGeometry width="50" height="50" relative="1" as="geometry">
            <mxPoint x="530" y="650" as="sourcePoint" />
            <mxPoint x="580" y="600" as="targetPoint" />
            <Array as="points">
              <mxPoint x="340" y="720" />
              <mxPoint x="340" y="830" />
            </Array>
          </mxGeometry>
        </mxCell>
      </root>
    </mxGraphModel>
  </diagram>
</mxfile>
